<?xml version="1.0" encoding="utf-8" ?><svg xmlns="http://www.w3.org/2000/svg" xmlns:xlink="http://www.w3.org/1999/xlink" width="978" height="366" viewBox="0 0 978 366"><path fill="white" d="M121.382 312.221C114.646 308.226 108.144 304.039 101.941 299.242C68.0316 273.124 45.9023 234.579 40.4355 192.113C35.124 150.158 46.8541 107.824 72.9982 74.5942C99.5129 40.826 138.402 19.0442 181.034 14.0837C222.89 8.81379 265.919 21.6325 299.097 47.4319C332.789 73.4193 354.632 111.863 359.715 154.123C358.636 158.043 358.643 186.777 359.691 191.193C357.518 212.406 349.95 233.1 339.723 251.697C332.002 254.67 323.457 256.883 315.426 258.905C312.274 240.753 308.135 222.647 304.513 204.573L278.369 74.9585C263.403 77.4658 248.512 80.4193 233.545 82.9337C231.75 67.5459 228.262 52.287 226.837 36.8689C205.112 46.4684 183.732 57.0944 162.135 67.0059C161.912 73.7827 163.887 111.066 161.687 113.972C159.557 112.902 155.022 103.921 153.531 101.375C147.518 102.003 134.312 102.822 129.857 106.802C128.652 107.877 128.479 108.78 128.305 110.325C127.631 116.284 127.801 122.504 127.537 128.511C126.793 145.469 126.433 162.472 125.972 179.441L123.23 254.022C122.562 273.415 122.293 292.834 121.382 312.221Z"/><path fill="white" d="M337.802 253.733L339.215 253.71C341.681 255.565 349.301 274.905 350.914 278.716C340.467 282.592 329.295 285.293 318.596 288.476L255.511 307.235L157.57 336.388C139.813 341.674 122.084 347.27 104.215 352.156L102.765 352.463C100.468 350.764 92.6876 331.214 90.9566 327.259L337.802 253.733Z"/><path fill="white" d="M655.303 113.001C666.595 112.327 678.729 113.11 687.686 120.886C694.491 126.796 697.068 135.241 697.666 143.987C698.385 154.498 697.541 166.727 690.274 174.971C683.53 182.622 673.92 184.895 664.136 185.498C664.076 185.508 664.017 185.52 663.957 185.529C654.742 186.769 642.198 184.483 634.789 178.762C628.324 173.77 625.082 166.172 624.056 158.232C622.63 147.188 623.127 133.761 630.232 124.582C636.39 116.626 645.773 114.209 655.303 113.001ZM665.315 170.439C669.464 169.865 672.475 168.601 675.068 165.14C679.597 159.095 679.872 148.756 678.816 141.618C678.195 137.42 676.633 132.863 673.046 130.282C668.133 126.746 661.005 127.128 655.304 127.813C650.913 128.972 647.67 130.582 645.258 134.673C641.47 141.096 641.589 152.156 643.453 159.129C644.514 163.099 646.746 166.598 650.377 168.663C654.681 171.11 660.546 171.195 665.315 170.439Z"/><path fill="white" d="M495.93 113.001C507.355 112.245 519.822 113 529.015 120.677C535.333 125.953 538.309 133.887 539.035 141.92C540.006 152.663 539.404 165.931 532.163 174.534C525.672 182.244 516.421 184.671 506.784 185.54C506.555 185.606 506.556 185.612 506.277 185.654C497.36 186.98 483.937 184.596 476.719 179.042C469.532 173.51 466.612 165.416 465.504 156.687C464.161 146.12 465.34 132.71 472.141 124.045C477.937 116.66 486.976 114.092 495.93 113.001ZM506.296 170.459C510.716 169.861 513.911 168.723 516.696 165.021C521.262 158.952 521.072 147.941 520.021 140.704C519.459 136.831 517.97 132.75 514.735 130.317C509.918 126.696 503.115 127.317 497.475 127.813C493.052 128.807 489.714 130.159 487.136 134.158C483.178 140.299 483.389 151.424 484.952 158.271C485.885 162.363 487.941 166.067 491.586 168.323C495.686 170.861 501.64 171.3 506.296 170.459Z"/><path fill="white" d="M548.839 113.957C558.862 113.351 587.477 112.915 596.269 115.288C602.95 117.09 607.972 120.812 611.402 126.88C617.157 137.062 617.524 153.615 614.423 164.78C613.23 169.074 610.667 174.899 606.619 177.201C606.497 177.637 606.348 177.819 606.021 178.132C604.168 179.899 601.926 181.205 599.475 181.943C587.444 185.686 561.618 184.284 548.402 183.984C549.583 181.767 549.25 119.562 548.839 113.957ZM566.548 168.99C574.004 169.122 586.926 171.056 592.665 165.728L592.916 165.082C595.702 163.202 596.831 159.613 597.439 156.442C598.73 149.704 598.663 140.194 594.646 134.289C592.811 131.591 590.489 129.97 587.284 129.375C581.212 128.248 573.272 128.749 567.062 129.246C567.892 131.542 567.656 166.769 566.96 168.27C566.84 168.53 566.709 168.756 566.548 168.99Z"/><path fill="white" d="M849.233 112.523C856.565 112.076 864.801 112.034 871.813 114.349C877.144 116.109 881.578 119.515 884.106 124.595C885.563 127.524 887.698 133.905 886.649 137.002C880.64 137.14 874.524 137.408 868.526 136.97C867.995 134.625 867.269 131.901 865.491 130.177C862.224 127.011 858.009 126.609 853.699 126.623C849.914 126.636 845.27 126.927 842.48 129.839C841.345 131.024 840.715 132.557 840.812 134.204C841.019 137.738 843.697 140.134 846.871 141.157C849.655 142.054 852.83 141.999 855.737 142.209C864.333 142.83 875.765 143.463 882.434 149.508C886.203 152.924 887.811 157.713 888.03 162.7C888.267 168.121 886.833 173.692 883.092 177.752C877.076 184.281 867.848 185.524 859.45 185.869C851.705 186.113 843.855 186.067 836.423 183.556C828.828 180.99 824.429 176.052 823.102 168.164C822.732 165.969 822.61 163.301 821.569 161.323C821.521 161.231 821.469 161.141 821.419 161.05C827.464 160.916 833.815 160.465 839.832 161.072C840.888 163.664 841.149 167.075 843.406 168.984C847.129 172.132 854.934 172.122 859.486 171.758C862.357 171.528 865.522 170.741 867.421 168.411C868.518 167.043 869.034 165.299 868.858 163.554C868.598 161.124 867.845 158.849 865.758 157.421C858.319 152.33 839.504 157.474 828.824 149.009C824.827 145.842 823.146 141.398 822.582 136.449C821.971 131.093 823.767 125.297 827.118 121.101C832.573 114.271 841.136 113.454 849.233 112.523Z"/><path fill="white" d="M393.72 113.954C402.369 113.56 411.14 113.822 419.804 113.815C432.286 113.737 444.769 113.777 457.251 113.933C457.439 114.274 457.618 114.629 457.74 115C458.683 117.873 458.55 126.196 457.24 128.992C449.618 129.173 441.956 129.046 434.329 129.07C434.607 129.497 434.844 129.949 434.933 130.457C435.567 134.101 435.65 158.973 434.217 161.26C434.481 161.684 434.714 162.128 434.846 162.613C435.637 165.52 435.645 181.649 434.211 184.046C428.225 184.249 422.193 184.072 416.202 184.043C416.378 183.769 416.528 183.489 416.635 183.18C417.534 180.571 417.22 137.025 416.871 131.405C416.818 130.545 416.586 129.826 416.202 129.059L393.185 128.997C394.867 126.415 394.196 117.169 393.72 113.954Z"/><path fill="white" d="M895.55 113.957C902.787 113.16 910.711 113.795 918.038 113.795C931.744 113.795 945.506 113.553 959.205 113.938C959.396 114.276 959.579 114.63 959.704 114.999C960.639 117.76 960.518 126.428 959.188 129.015L936.422 129.109C936.657 129.457 936.865 129.832 936.934 130.252C937.533 133.886 937.602 159.024 936.179 161.257C936.477 161.7 936.725 162.174 936.835 162.701C937.502 165.912 937.781 181.399 936.247 184.003C930.256 184.239 924.261 184.088 918.269 183.988C918.535 183.558 918.772 183.105 918.902 182.612C919.718 179.503 919.476 137.187 919.066 131.407C919.005 130.545 918.756 129.842 918.34 129.088C910.636 128.878 902.879 129.025 895.168 128.996C895.291 128.793 895.4 128.6 895.5 128.385C896.608 126.021 896.468 116.524 895.55 113.957Z"/><path fill="white" d="M725.641 113.957C731.575 113.729 737.518 113.862 743.454 113.934C743.642 114.375 743.796 114.819 743.892 115.29C744.643 118.989 744.419 161.557 743.996 166.795C743.934 167.563 743.685 168.153 743.27 168.79C756.614 168.867 770.012 168.558 783.345 169.071C783.808 169.771 783.947 170.561 784.029 171.38C784.314 174.231 784.896 181.794 783.216 183.838C779.293 185.084 733.427 184.117 725.191 184C725.6 183.351 725.822 182.747 725.879 181.973C726.783 169.635 725.981 154.693 725.977 142.117C725.974 135.31 726.834 119.931 725.641 113.957Z"/><path fill="white" d="M794.552 113.957C800.434 113.717 806.345 113.88 812.231 113.939C812.613 114.83 812.836 115.843 812.881 116.812C813.201 123.786 813.611 180.491 812.636 183.272C812.596 183.321 812.563 183.375 812.518 183.418C810.992 184.895 797.137 184.052 794.123 183.985C794.204 183.855 794.285 183.726 794.358 183.592C795.383 181.701 795.574 117.397 794.552 113.957Z"/><path fill="white" d="M476.293 213.022C487.012 210.599 497.661 217.341 500.063 228.071C502.465 238.8 495.708 249.443 484.98 251.827C474.28 254.205 463.676 247.464 461.28 236.763C458.884 226.061 465.601 215.439 476.293 213.022ZM482.888 245.883C486.329 245.226 489.033 243.849 491.083 240.864C493.385 237.513 493.913 232.951 493.134 229.015C492.474 225.684 490.73 222.706 487.845 220.831C484.632 218.741 481.076 218.66 477.402 219.074C473.624 220.451 471.059 222.155 469.289 225.943C467.612 229.532 467.444 234.144 468.795 237.866C469.905 240.926 472.089 243.481 475.064 244.863C477.624 246.051 480.149 246.106 482.888 245.883Z"/><path fill="white" d="M278.196 230.433L278.976 230.708C279.948 233.073 280.131 235.996 280.515 238.526C265.011 243.295 249.163 247.151 233.508 251.413L155.493 272.727C154.901 272.802 154.319 272.745 153.727 272.707C152.497 270.761 153.233 266.734 153.376 264.503C171.122 260.114 188.741 254.904 206.36 250.019L278.196 230.433Z"/><path fill="white" fill-opacity="0.98823529" d="M406.737 213.817C413.358 213.487 428.85 212.518 433.613 216.921C435.451 218.62 436.301 220.967 436.393 223.435C436.541 227.421 435.337 228.589 432.691 231.367C433.89 232.219 435.176 233.16 436.194 234.228C437.609 235.712 438.669 237.61 438.595 239.713C438.524 241.696 437.797 243.962 436.372 245.356C436.158 246.625 435.886 247.004 434.962 247.92C430.32 252.523 412.751 250.938 406.038 250.89C407.859 247.938 407.051 219.111 406.737 213.817ZM412.255 245.894C416.319 245.912 425.913 246.777 428.971 244.048C430.157 243.156 430.983 242.625 431.217 241.038C431.414 239.693 431.415 238.232 430.568 237.107C429.231 235.335 426.838 234.792 424.746 234.549C421.353 234.155 415.743 234.04 412.411 234.835C413.382 237.182 413.612 242.739 412.637 245.141C412.529 245.406 412.398 245.649 412.255 245.894ZM412.324 229.156C414.934 229.18 425.081 230.146 426.822 228.213C426.895 228.132 426.958 228.041 427.026 227.955C428.166 227.295 429.091 226.698 429.44 225.352C429.748 224.162 429.52 222.738 428.881 221.69C428.006 220.255 426.379 219.532 424.801 219.177C421.104 218.347 416.691 218.921 412.912 219.074C413.058 222.156 413.605 226.257 412.324 229.156Z"/><path fill="white" d="M271.748 197.052L272.218 197.304C273.394 199.526 273.604 202.889 274.048 205.382C246.575 212.136 219.201 219.947 191.921 227.46C180.014 230.74 167.89 234.964 155.793 237.335L154.923 237.678L154.323 237.244C153.71 234.752 154.153 231.741 154.279 229.182C166.255 225.482 178.526 222.412 190.618 219.108L271.748 197.052Z"/><path fill="white" d="M263.852 164.477L265.264 164.308C265.99 164.879 266.188 165.671 266.42 166.526C266.867 168.177 267.243 170.662 266.406 172.144C261.67 173.989 256.545 175.094 251.638 176.427L226.809 183.173C204.198 189.312 181.621 195.94 158.901 201.638C157.538 201.998 156.854 202.367 155.491 201.937C154.289 199.902 155.008 196.193 155.066 193.829C163.285 191.999 171.406 189.476 179.53 187.264L238.869 171.152C247.182 168.938 255.457 166.347 263.852 164.477Z"/><path fill="white" d="M217.544 56.3752C218.273 56.2755 218.344 56.3133 218.999 56.6595C219.838 65.8642 220.256 75.1248 220.87 84.3483C221.293 90.6826 222.037 97.0117 222.075 103.363C215.874 95.7622 213.349 85.1584 211.849 75.6122C202.303 77.3701 192.882 79.7303 183.351 81.5728C182.743 83.4346 182.368 85.4132 181.914 87.3194C180.36 95.8548 178.316 104.154 174.925 112.158C175.49 99.0074 174.232 85.9495 174.253 72.8091C188.813 67.7291 203.077 61.725 217.544 56.3752Z"/><path fill="white" d="M257.911 130.988C258.547 130.856 258.903 130.979 259.505 131.197C260.624 133.344 260.839 136.171 261.239 138.552C256.568 140.607 251.203 141.645 246.266 142.953L221.335 149.573C200.526 155.164 179.837 161.709 158.896 166.719C157.656 167.087 156.892 167.528 155.636 167.157C154.396 165.228 155.107 161.58 155.184 159.323C166.258 155.365 178.237 152.757 189.59 149.632L257.911 130.988Z"/><path fill="white" d="M649.852 213.818C654.978 213.476 669.69 213.218 673.897 215.186C675.905 216.125 677.392 217.728 678.121 219.829C679.025 222.431 679.118 225.537 677.856 228.038C676.446 230.834 674.547 231.544 671.756 232.448C673.561 234.951 676.627 235.209 677.979 238.098C679.132 240.563 680.951 248.663 680.055 251.125C677.566 251.064 675.14 250.968 672.674 250.61C673.133 249.436 673.014 247.892 673.018 246.635C673.028 243.622 672.938 241.011 670.619 238.764C666.919 235.179 660.885 235.889 656.168 236.002C656.426 236.43 656.651 236.87 656.792 237.352C657.588 240.06 657.523 248.601 656.176 250.949L649.361 250.992C651.054 247.793 650.351 218.791 649.852 213.818ZM656.193 229.331C659.743 229.388 666.269 230.272 669.343 228.422L669.639 227.987C670.559 227.429 671.503 226.886 671.8 225.775C672.152 224.455 671.957 222.786 671.23 221.623C670.313 220.158 668.456 219.504 666.846 219.178C663.68 218.538 659.973 218.902 656.747 219.074C657.296 221.883 657.536 226.748 656.193 229.331Z"/><path fill="white" d="M701.687 213.818C701.844 213.797 702.001 213.78 702.159 213.765C708.983 213.099 722.514 212.743 727.937 217.351C730.039 219.137 731.384 221.611 731.584 224.373C731.805 227.416 730.578 230.345 728.551 232.577C725.183 236.287 720.999 237.196 716.189 237.446L708.253 237.419C708.547 237.889 708.778 238.356 708.886 238.905C709.426 241.655 709.62 248.559 708.124 250.921C705.94 250.974 703.756 251.049 701.573 251.148C702.601 248.311 702.597 217.456 701.687 213.818ZM722.363 229.586C723.561 228.638 724.195 227.786 724.367 226.227C724.554 224.525 724.316 222.617 723.183 221.265C721.758 219.564 719.349 219.001 717.23 218.86C714.405 218.672 711.49 218.922 708.664 219.074C709.246 221.787 709.855 228.661 708.35 231.049C708.306 231.119 708.259 231.188 708.213 231.257C711.353 231.345 719.666 232.347 722.021 230.066C722.184 229.907 722.237 229.788 722.363 229.586Z"/><path fill="white" d="M814.529 214.296C817.679 213.755 820.938 213.949 824.122 213.999C824.392 214.223 824.637 214.46 824.865 214.728C826.682 216.859 838.641 248.536 838.432 250.859L831.356 250.798C831.44 250.506 831.51 250.286 831.497 249.979C831.409 247.859 830.755 245.342 829.181 243.88C827.698 242.502 826.001 242.792 824.113 242.843C819.466 242.788 814.837 242.907 810.193 243.057C810.227 243.175 810.28 243.329 810.291 243.457C810.462 245.479 808.66 249.549 807.312 251.004C805.041 250.987 802.769 251.076 800.499 251.141C802.315 248.764 814.099 218.305 814.529 214.296ZM812.019 237.597L819.815 237.414C821.985 237.424 824.293 237.279 826.446 237.491C827.075 234.12 821.984 223.696 820.571 220.276C820.145 219.95 819.791 219.608 819.238 219.552C818.17 222.888 814.257 235.756 812.019 237.597Z"/><path fill="white" fill-opacity="0.98823529" d="M601.677 213.818C610.361 213.175 619.548 213.911 628.315 213.725C628.492 214.06 628.639 214.407 628.737 214.773C629.097 216.116 629.033 217.969 628.328 219.189C621.663 219.11 614.997 219.067 608.331 219.061C608.462 219.371 608.58 219.689 608.653 220.018C609.235 222.643 609.309 226.713 607.824 229.01C613.578 229.094 619.337 229.061 625.091 229.082C625.311 229.378 625.41 229.59 625.509 229.951C625.94 231.538 625.864 233.557 624.994 234.969C620.214 234.846 615.433 234.839 610.653 234.95C610.186 234.944 609.716 235.107 609.262 235.218C607.844 238.331 609.806 242.12 608.023 245.321C614.815 245.199 621.608 245.173 628.401 245.244C628.559 245.487 628.652 245.712 628.739 245.99C629.255 247.653 629.161 249.584 628.341 251.12C619.28 250.919 610.215 250.875 601.152 250.987C602.538 248.831 602.124 218.229 601.677 213.818Z"/><path fill="white" fill-opacity="0.98823529" d="M913.695 213.818C922.319 213.136 931.444 213.936 940.155 213.701C940.31 213.965 940.448 214.237 940.542 214.53C940.937 215.758 940.831 218.016 940.221 219.13C933.363 218.952 926.542 218.882 919.688 219.211C920.095 219.706 920.322 220.146 920.439 220.779C920.868 223.088 921.006 226.991 919.62 228.969C925.407 229.171 931.215 229.077 937.006 229.072C937.245 229.399 937.341 229.721 937.44 230.111C937.817 231.587 937.76 233.639 936.952 234.957C931.813 234.788 926.669 234.797 921.53 234.986L921.043 235.07C919.496 236.611 921.046 242.874 919.817 245.552C926.616 245.252 933.405 245.268 940.208 245.284C940.436 245.685 940.614 246.128 940.754 246.568C941.22 248.041 941.151 249.707 940.447 251.082C931.568 250.697 922.519 250.805 913.638 251.114C914.465 246.317 914.681 218.829 913.695 213.818Z"/><path fill="white" fill-opacity="0.98823529" d="M752.502 213.818C754.689 213.454 757.163 213.63 759.39 213.61C759.565 213.887 759.742 214.197 759.828 214.516C760.803 218.143 760.499 238.814 759.983 243.207C759.893 243.978 759.573 244.644 759.16 245.292C766.212 245.235 773.263 245.133 780.311 245.408C780.347 245.451 780.388 245.49 780.417 245.538C781.112 246.717 780.392 248.947 780.029 250.133L779.909 250.552C777.859 251.735 755.945 250.924 752.129 250.917C752.18 250.833 752.234 250.751 752.283 250.666C753.535 248.516 753.516 217.264 752.502 213.818Z"/><path fill="white" fill-opacity="0.98823529" d="M552.055 213.818L558.336 213.688C558.633 214.189 558.858 214.689 558.968 215.265C559.66 218.872 559.648 242.929 558.151 245.268C565.007 245.165 571.864 245.193 578.718 245.353C578.821 245.537 578.866 245.609 578.956 245.819C579.618 247.373 579.071 249.148 578.435 250.611C577.113 251.493 555.117 250.948 551.147 250.964C553.055 247.755 552.004 220.001 552.055 213.818Z"/><path fill="white" fill-opacity="0.98823529" d="M858.893 213.818C863.237 213.829 889.64 212.861 891.814 214.12C892.297 214.399 892.464 215.23 892.573 215.775C892.828 217.042 892.48 217.949 891.799 218.975C887.57 219.489 882.759 219.001 878.473 218.94C878.611 219.405 878.748 219.868 878.852 220.342C879.553 223.552 879.971 234.015 878.258 236.753C878.424 237.02 878.576 237.289 878.701 237.578C879.851 240.231 879.436 248.267 878.386 251C876.402 250.819 874.245 250.987 872.244 250.997C872.27 250.916 872.298 250.837 872.323 250.756C873.287 247.673 873.441 221.643 872.141 219.168C868.695 218.757 865.607 219.32 862.218 219.348C861.208 219.357 860.46 218.972 859.742 218.282C858.775 217.352 858.925 215.107 858.893 213.818Z"/><path fill="white" d="M255.934 100.989C259.163 100.872 264.541 100.731 267.324 102.572C268.171 103.132 268.211 103.406 268.431 104.384C268.244 104.893 268.029 105.405 267.704 105.844C264.14 110.648 254.416 111.682 248.916 112.259C246.837 112.379 244.679 112.38 242.604 112.213C240.264 112.024 236.904 111.655 235.32 109.769C235.218 108.736 235.311 108.237 235.994 107.413C240.075 102.494 250 101.644 255.934 100.989Z"/><path fill="white" fill-opacity="0.98823529" d="M522.374 213.818L528.338 213.769C528.575 214.283 528.741 214.819 528.854 215.375C529.442 218.273 529.461 247.771 528.835 249.38C528.687 249.759 528.272 250.257 528.045 250.611C526.434 251.237 523.517 250.925 521.741 250.933C523.652 247.362 522.524 219.586 522.374 213.818Z"/><path fill="white" fill-opacity="0.97254902" d="M359.715 154.123C360.899 165.033 361.945 180.55 359.691 191.193C358.643 186.777 358.636 158.043 359.715 154.123Z"/></svg>