<svg xmlns="http://www.w3.org/2000/svg" version="1.1" xmlns:xlink="http://www.w3.org/1999/xlink" xmlns:svgjs="http://svgjs.dev/svgjs" width="1920" height="1080" preserveAspectRatio="none" viewBox="0 0 1920 1080"><g mask="url(&quot;#SvgjsMask1002&quot;)" fill="none"><rect width="1920" height="1080" x="0" y="0" fill="rgba(252, 251, 218, 1)"></rect><path d="M0 0L288.2 0L0 114.62z" fill="rgba(255, 255, 255, .1)"></path><path d="M0 114.62L288.2 0L416.54999999999995 0L0 473.47z" fill="rgba(255, 255, 255, .075)"></path><path d="M0 473.47L416.54999999999995 0L657.27 0L0 842.96z" fill="rgba(255, 255, 255, .05)"></path><path d="M0 842.96L657.27 0L831.72 0L0 930.22z" fill="rgba(255, 255, 255, .025)"></path><path d="M1920 1080L1747.56 1080L1920 562.87z" fill="rgba(0, 0, 0, .1)"></path><path d="M1920 562.87L1747.56 1080L1010.4 1080L1920 271.04z" fill="rgba(0, 0, 0, .075)"></path><path d="M1920 271.03999999999996L1010.4000000000001 1080L470.85000000000014 1080L1920 252.99999999999997z" fill="rgba(0, 0, 0, .05)"></path><path d="M1920 253L470.85000000000014 1080L142.89000000000016 1080L1920 98.44999999999999z" fill="rgba(0, 0, 0, .025)"></path></g><defs><mask id="SvgjsMask1002"><rect width="1920" height="1080" fill="#ffffff"></rect></mask></defs></svg>