<svg xmlns="http://www.w3.org/2000/svg" version="1.1" xmlns:xlink="http://www.w3.org/1999/xlink" xmlns:svgjs="http://svgjs.dev/svgjs" width="1920" height="1080" preserveAspectRatio="none" viewBox="0 0 1920 1080"><g mask="url(&quot;#SvgjsMask1092&quot;)" fill="none"><rect width="1920" height="1080" x="0" y="0" fill="url(&quot;#SvgjsLinearGradient1093&quot;)"></rect><path d="M1984 1080L0 1080 L0 602.61Q42.27 484.88, 160 527.15Q222.25 493.39, 256 555.64Q336.51 540.15, 352 620.67Q422.2 530.87, 512 601.07Q609.48 538.55, 672 636.03Q712.44 580.47, 768 620.91Q779 535.9, 864 546.9Q934.52 457.42, 1024 527.94Q1135.13 479.08, 1184 590.21Q1283.73 529.94, 1344 629.67Q1387.13 512.79, 1504 555.92Q1560.07 451.99, 1664 508.06Q1773.63 457.7, 1824 567.33Q1889.36 472.69, 1984 538.06z" fill="rgba(26, 33, 48, 0.77)"></path><path d="M2016 1080L0 1080 L0 804.95Q15.7 660.65, 160 676.35Q214.06 634.41, 256 688.48Q364.11 636.59, 416 744.69Q448.49 681.18, 512 713.68Q567.19 672.87, 608 728.05Q662.46 622.51, 768 676.97Q894.7 643.67, 928 770.38Q1025.45 707.83, 1088 805.28Q1108.72 730, 1184 750.73Q1229.67 636.4, 1344 682.08Q1398.26 640.35, 1440 694.61Q1534.25 628.86, 1600 723.1Q1674.61 637.7, 1760 712.31Q1841.55 697.86, 1856 779.41Q1944.35 707.76, 2016 796.11z" fill="rgba(90, 114, 160, 1)"></path><path d="M2080 1080L0 1080 L0 823.41Q111.7 775.11, 160 886.8Q261.59 892.38, 256 993.97Q207.49 849.46, 352 800.95Q460.04 749, 512 857.04Q586.04 771.08, 672 845.12Q781.57 794.69, 832 904.27Q950.97 863.24, 992 982.21Q993.32 887.53, 1088 888.85Q1125.92 766.77, 1248 804.69Q1306.08 766.77, 1344 824.85Q1494.86 815.71, 1504 966.57Q1531.07 833.64, 1664 860.71Q1685.11 785.82, 1760 806.93Q1850.12 737.05, 1920 827.17Q2044.99 792.16, 2080 917.16z" fill="rgba(131, 180, 255, 1)"></path><path d="M2016 1080L0 1080 L0 1004.87Q115.47 960.34, 160 1075.8Q178.58 934.38, 320 952.96Q413.81 886.77, 480 980.57Q610.8 951.37, 640 1082.17Q729.3 1011.47, 800 1100.77Q847.16 987.93, 960 1035.1Q1029.28 1008.38, 1056 1077.65Q1057.3 982.95, 1152 984.25Q1212.71 884.96, 1312 945.68Q1450.58 924.26, 1472 1062.84Q1498.42 993.26, 1568 1019.69Q1622.72 978.41, 1664 1033.14Q1698.18 971.32, 1760 1005.5Q1784.42 933.92, 1856 958.34Q1968.83 911.17, 2016 1024z" fill="rgba(253, 255, 226, 1)"></path></g><defs><mask id="SvgjsMask1092"><rect width="1920" height="1080" fill="#ffffff"></rect></mask><linearGradient x1="10.94%" y1="-19.44%" x2="89.06%" y2="119.44%" gradientUnits="userSpaceOnUse" id="SvgjsLinearGradient1093"><stop stop-color="#0e2a47" offset="0"></stop><stop stop-color="rgba(0, 69, 158, 0.97)" offset="1"></stop></linearGradient></defs></svg>